<?xml version="1.0" encoding="utf-8"?>
<!-- Generator: Adobe Illustrator 22.0.1, SVG Export Plug-In . SVG Version: 6.00 Build 0)  -->
<svg version="1.1" id="Layer_1" xmlns="http://www.w3.org/2000/svg" xmlns:xlink="http://www.w3.org/1999/xlink" x="0px" y="0px"
	 viewBox="0 0 316.4 454.9" style="enable-background:new 0 0 316.4 454.9;" xml:space="preserve">
<style type="text/css">
	.st0{fill:#005CA9;}
	.st1{fill:#FFFFFF;}
	.st2{fill:#E30613;}
	.st3{fill:#EC1C24;}
</style>
<image style="overflow:visible;opacity:0.4;enable-background:new    ;" width="316" height="456" xlink:href="4D958D44.png"  transform="matrix(0.9968 0 0 0.9968 0 -1.9046)">
</image>
<g>
	<g>
		<path class="st0" d="M2.9,450c108.2,0,212.1-18.6,308.7-52.7V0H2.9V450"/>
		<path class="st1" d="M232.6,136.1c-1.6-0.5-3.8-0.8-6.5-0.8s-5.7,0.3-9.2,0.8l-7,1.1l5.1-5c2.1-2.1,4.2-4.1,6-6
			c5.2-5.3,12.3-13,15-19.3c2.5-5.8,2-12.5-1.3-18.8c-5.6-10.6-18.2-18.7-33.8-21.8c-4.7-0.9-9.4-1.4-14-1.4
			c-21.6,0-37.2,9.9-41.3,19.7c-2.8,6.6-2.8,16.1-2.6,22.7c0.2,4.5,0.5,9.8,1.2,15.6l0.6,5.8l-4.3-3.9c-7.6-6.9-15.2-11-20.7-11.3
			c-0.6,0-1.2,0-1.9,0l0,0c-9.6,0-17.3,3.9-22.7,11.5c-4.8,6.6-7.7,15.9-8.5,26.9c-0.8,10.9,0.6,22.4,3.9,31.7
			c3.2,9,7.7,14.5,12.3,15.2c1.5,0.2,3.1,0.3,4.8,0.3c6.2,0,11.6-1.5,13.6-2.1c1.6-0.5,3.3-1.1,5.2-1.8l5.3-2l-2.5,5.1
			c-1.3,2.6-2.4,5.2-3.5,7.8c-0.2,0.6-1,2.6-1.2,4.8c-0.9,8.4,4.6,16.3,12.9,18.2c2.1,0.4,4.3,0.8,6.4,1l9.8,1
			c0.5-28,7.9-40.8,7.9-40.8v-0.1c4,7.3,9,13.3,9.7,14.1s1.4,1.6,2.1,2.3c5.2,5.4,10.2,8.4,15.3,9.1c0.7,0.1,1.4,0.1,2.1,0.1
			c3.2,0,6.7-0.9,10.6-2.8c3.3-1.6,6.9-3.9,10.7-6.8c7.1-5.4,14.6-12.8,20.6-20.3c7.2-8.9,11.8-17.4,13.6-24.6
			C248.1,152.2,245.8,140.5,232.6,136.1"/>
		<path class="st2" d="M196.6,72.4c25.2,5,29.7,20.5,27.3,26c-6.4,15-64.9,61.9-64.9,61.9s-12.5-60.8-6.1-75.9
			C155.3,78.9,171.1,67.4,196.6,72.4L196.6,72.4"/>
		<path class="st2" d="M160.5,167.6c0,0,15.3,31.9,26.8,33.5c13.9,1.8,64.6-51.1,39.6-59.4C218.8,139,178.9,149.8,160.5,167.6"/>
		<path class="st2" d="M152.3,165.7c0,0-38.1,21.5-49,18.6c-13.2-3.5-14.4-66.5,13.2-64.5C125.4,120.5,150.7,144,152.3,165.7"/>
		<path class="st3" d="M142.4,215.4c-1.8-0.2-3.5-0.5-5.2-0.8c-3-0.7-5-3.4-4.6-6.7c0.1-0.7,0.3-1.5,0.6-2.2l0.3-0.9
			c5.1-12.9,12.8-24,22.3-32.5C147.6,184.7,142.8,199.5,142.4,215.4"/>
		<path class="st1" d="M93,259.7l3.3-7.5h29l-9.4,21.6c0,0,22.1-14.5,42-1.4c0,0,23.8-14.4,29.5,5l9.3-8.7h22.2c0,0,20.5-6.5,31.7,5
			l2.8-6.3h21.5c0,0,7.2-2.4,15.8,3.7l-8.5,19.4c0,0-9.4-5-13.2,3.2c-3.8,8.2-7.1,16.7-7.1,16.7h-27.4l1.5-3.3
			c0,0-11.4,6.6-22.7,1.9s-12.9-12.6-13.5-14.5l-17.1,15.9h-22l-0.9-11.5c0,0-8.8,10.6-29,11.4c-16.6,0.7-22.3-6.5-22.3-6.5
			s-6.4,6.3-16,6.6c-9.6,0.3-12.6-6.5-12.6-6.5s-17.4,11.6-39.5,4.3c-22.1-7.3-20.7-31.5-4.3-43.6C52.6,252.7,78.7,252,93,259.7"/>
		<path class="st2" d="M142.3,282c0.4-2.9-0.1-5.5-4.3-5.5c-8.3,0-12.8,11.1-13.4,15.7c-0.4,3,0.1,5.4,4.3,5.4
			C137.2,297.7,141.8,286.7,142.3,282 M156.6,285.2c-1.3,10.2-13.4,17.4-28.4,17.4c-10.6,0-18.9-5.1-17.8-13.3
			c1.3-10.1,14.5-17.5,27.9-17.5C150.1,271.7,157.6,276.8,156.6,285.2z"/>
		<path class="st2" d="M157.1,279.3c1.8-3.3,9.6-6.7,14.8-7.1c0.7-0.1,1.4-0.1,2-0.1c0.7,0.1,1.3,0.1,1.9,0.3
			c2.3,0.6,4.2,3.5,4.3,6.1l0.4,11.6l18.5-17.4h11.5l-31.4,29.8H166l-1.6-20.2C164,277.2,160,278,157.1,279.3L157.1,279.3"/>
		<path class="st2" d="M262.7,289.9c1.3-2.7,3.4-5,6.1-6.4c3.1-1.6,6.8-2.8,9-1.7l1.2,0.6l5-9.8c-7.4-3.7-16.1,3.2-16.5,3.5l2.1-4.5
			h-12.5l-13.4,30.8h13.5L262.7,289.9"/>
		<path class="st2" d="M108,292.9c0.2-0.3,0.4-0.7,0.4-0.7l-0.6,0.5l0,0c-2.9,2.7-7.6,3.6-8.7,2.5c-1.1-1.2,0.4-4.3,0.4-4.3l0,0
			c0.1-0.4,0.3-0.8,0.5-1.2l14.4-32.8H99.8l-14.4,32.9c-3,7-1.1,12.8,7.2,12.8c0.6,0,1.2-0.1,1.7-0.1
			C101.7,301.5,106.2,295.7,108,292.9"/>
		<polyline class="st1" points="157.3,279 157.2,279.2 157.5,279.2 157.1,279.5 157,279.3 157.1,279 157.3,279 		"/>
		<path class="st2" d="M246.5,279.9c-0.9-4.2-4.7-8-15-8.3c-18.8-0.5-25.8,11.5-26.5,16.7c-0.5,4.4,2.5,14.3,18.6,14.3
			c1.1,0,2.3-0.1,3.3-0.2c2.5-0.2,9.5-0.9,15.5-6.5l0,0l0.1-0.1c0.2-0.2,0.4-0.4,0.3-0.5c0,0-0.2,0-0.3,0.1l-0.2,0.1l0,0
			c-2.3,1.3-4.8,1.9-4.8,1.9c-20.7,4.2-17.6-9-17.6-9l25.2-0.1l0.4-0.8C245.5,287.7,247.4,283.8,246.5,279.9 M234.8,283.9h-14
			c0,0,1.8-7.5,8.6-7.7C236.8,276,234.8,283.9,234.8,283.9z"/>
		<path class="st2" d="M81.6,290.6L81.6,290.6l-0.3,0.2l0,0c-4.9,3-11.4,4.8-18.7,4.8c-5,0-10.7-1.2-14.4-4.8
			c-0.7-0.7-1.2-1.4-1.6-2.2c-0.5-0.9-0.8-2-1-3c-0.3-2-0.1-3.6-0.1-3.6c1.1-10.3,12.1-17.8,23.3-17.8c7,0,12.2,2.6,14.3,7.1l0,0
			l0,0c0,0,0.1,0.2,0.2,0l3.5-8.1c-4.5-2.6-10.6-4-18-4c-18.7,0-37.2,10.3-39,24.4c-1.4,11.2,9.6,18.6,23.9,19l0,0
			c0,0,0.2,0,0.6,0.1l-0.1-0.1c16.7,0,25-7.8,27.9-11.4c0.3-0.4,0.7-0.9,0.5-1S82,290.4,81.6,290.6"/>
		<polyline class="st1" points="255.9,336.9 253.1,336.9 253.4,335.6 260.6,335.6 260.3,336.9 257.5,336.9 256.1,344.2 254.5,344.2 
			255.9,336.9 		"/>
		<path class="st1" d="M262.1,335.6h1.7l0.9,4.2c0.1,0.5,0.2,1.3,0.2,1.3l0,0c0,0,0.4-0.7,0.7-1.3l2.5-4.2h1.7l-1,8.6h-1.5l0.6-4.8
			c0.1-0.6,0.2-1.3,0.2-1.3l0,0c0,0-0.4,0.8-0.7,1.3l-2,3.3H264l-0.8-3.3c-0.1-0.5-0.2-1.4-0.2-1.4l0,0c0,0-0.1,0.8-0.3,1.4
			l-1.3,4.8h-1.6L262.1,335.6"/>
		<path class="st1" d="M45.2,341.7h5.5l0.8,20.2c0.1,1.6,0,3.1,0,3.1h0.1c0,0,0.5-1.4,1.2-3.1l9.2-20.2h4.6l1.1,20.2
			c0.1,1.4,0,3.1,0,3.1h0.1c0,0,0.4-1.5,1.1-3.1l8.5-20.2h5.7l-13,29.1h-6.2l-1.1-17.2c-0.1-1.8,0-3.8,0-3.8h-0.1c0,0-0.7,2-1.5,3.8
			l-8,17.2h-6.1L45.2,341.7"/>
		<path class="st1" d="M92.1,357.7h0.8c0.1-0.5,0.1-0.9,0.1-1.1c0-1.8-1-2.8-3.4-2.8c-3,0-6.2,2-6.2,2l-1.2-4c0,0,3.8-2.3,8.3-2.3
			c3.8,0,7.7,1.6,7.7,6.4c0,0.6-0.1,1.3-0.2,2.1l-2.5,12.9h-4.8l0.3-1.8c0.2-0.9,0.4-1.5,0.4-1.5h-0.1c0,0-2.4,3.8-6.8,3.8
			c-3.2,0-6.2-1.9-6.2-5.3C78.4,359.3,86.6,357.7,92.1,357.7 M86.3,367.2c2.8,0,5.3-3,5.8-5.6l0.1-0.4h-0.9c-2.4,0-7.8,0.4-7.8,3.8
			C83.6,366.3,84.5,367.2,86.3,367.2z"/>
		<path class="st1" d="M100.6,375c1.6,0,3-0.8,4.1-2.7l1.2-1.9l-4.8-20.6h5.4l2.4,12.7c0.2,1.1,0.2,2.7,0.2,2.7h0.1
			c0,0,0.7-1.5,1.2-2.6l6.6-12.8h5.9L108.8,374c-2.2,3.8-5.2,5.4-8,5.4c-2.7,0-4.8-1.5-4.8-1.5l2.3-3.7
			C98.4,374.3,99.3,375,100.6,375"/>
		<path class="st1" d="M138.3,341.7h9.4c1.7,0,3.2,0.2,4.4,0.6c2.7,0.9,4.2,3.1,4.2,6c0,3.1-1.9,5.9-4.8,7.2v0.1
			c2.3,0.9,3.5,3.1,3.5,5.7c0,4.5-2.8,7.6-6.5,8.9c-1.4,0.5-2.9,0.7-4.4,0.7h-11.5L138.3,341.7 M144.5,366.3c0.9,0,1.7-0.2,2.4-0.5
			c1.6-0.9,2.8-2.6,2.8-4.6c0-1.9-1.3-3.2-3.5-3.2h-5.7l-1.6,8.4L144.5,366.3L144.5,366.3z M146.4,353.6c2.6,0,4.4-2.1,4.4-4.6
			c0-1.6-0.9-2.8-3.1-2.8h-5.1l-1.4,7.3h5.2V353.6z"/>
		<path class="st1" d="M170.8,349.4c5.6,0,8.4,3.3,8.4,7.9c0,1.8-0.7,4-0.7,4h-14.4c0,0.3,0,0.5,0,0.8c0,2.7,1.8,4.8,5.2,4.8
			s6.5-2.3,6.5-2.3l1.4,4c0,0-3.5,2.8-8.2,2.8c-6.5,0-10.2-3.9-10.2-9C158.7,355.2,163.9,349.4,170.8,349.4 M174,357.8
			c0,0,0.1-0.5,0.1-0.9c0-2.2-1.4-3.4-3.3-3.4c-2.7,0-4.8,1.8-5.9,4.3H174z"/>
		<path class="st1" d="M183,362.7l1.6-8.4h-2.7l0.8-4.1h2.8l1.2-6h5l-1.2,6h4.8l-0.8,4.1h-4.8l-1.5,7.6c-0.1,0.7-0.2,1.4-0.2,1.7
			c0,2.4,1.7,2.8,3.3,2.8c0.7,0,1.2-0.1,1.2-0.1l-0.9,4.6c0,0-0.8,0.1-1.5,0.1c-3.8,0-7.4-1.5-7.4-6.4
			C182.8,364.1,182.9,363.4,183,362.7"/>
		<path class="st1" d="M198.4,362.7l1.6-8.4h-2.7l0.8-4.1h2.8l1.2-6h5l-1.2,6h4.8l-0.8,4.1h-4.8l-1.5,7.6c-0.1,0.7-0.2,1.4-0.2,1.7
			c0,2.4,1.7,2.8,3.3,2.8c0.7,0,1.1-0.1,1.1-0.1l-0.9,4.6c0,0-0.8,0.1-1.5,0.1c-3.8,0-7.4-1.5-7.4-6.4
			C198.1,364.1,198.3,363.4,198.4,362.7"/>
		<path class="st1" d="M223.8,349.4c5.6,0,8.4,3.3,8.4,7.9c0,1.8-0.7,4-0.7,4h-14.4c0,0.3,0,0.5,0,0.8c0,2.7,1.8,4.8,5.2,4.8
			s6.5-2.3,6.5-2.3l1.4,4c0,0-3.5,2.8-8.2,2.8c-6.5,0-10.2-3.9-10.2-9C211.7,355.2,216.9,349.4,223.8,349.4 M227,357.8
			c0,0,0.1-0.5,0.1-0.9c0-2.2-1.4-3.4-3.3-3.4c-2.7,0-4.8,1.8-5.9,4.3H227z"/>
		<path class="st1" d="M238.1,349.9h5l-0.7,3.6c-0.2,0.8-0.4,1.5-0.4,1.5l0,0c1.4-2.9,4.3-5.4,7.5-5.4c0.7,0,1.2,0.1,1.2,0.1l-1,5.1
			c0,0-0.5-0.1-1.2-0.1c-3.1,0-6.8,3.5-7.8,8.7l-1.4,7.4h-5.2L238.1,349.9"/>
	</g>
</g>
</svg>
